<?xml version="1.0" encoding="UTF-8"?>
<svg id="v2ex_logo" xmlns="http://www.w3.org/2000/svg" version="1.1" viewBox="0 0 415 117">
  <defs>
    <style>
      .st0 { isolation: isolate; }
      .st1 { fill: #3e3a39; }
    </style>
  </defs>
  <g class="st0">
    <g class="st0">
      <path class="st1" d="M175.2,29.9c2.2-8.1,5.5-11.4,11.7-11.4s11.2,4,11.2,10.1-.7,5.7-1.7,9l-14.6,45.6c-3.7,11.6-9.6,16.5-19.9,16.5s-16.5-4.9-20.1-16.5l-14.6-45.6c-1.1-3.5-1.8-6.6-1.8-8.8,0-6.1,4.7-10.3,11.3-10.3s9.8,3.6,12,11.4l12.9,45.2h1.1l12.4-45.2h.1Z"/>
      <path class="st1" d="M215.4,75.8l18.6-18c6.2-5.9,8.8-9.8,8.8-13.8s-3.5-7.9-8.5-7.9-6.7,1.7-9.7,5.9c-3.3,4.3-5.7,5.9-9.6,5.9s-9.1-3.6-9.1-8.6c0-11.2,13.4-21.4,29.6-21.4s29.2,10.1,29.2,23.8-4.4,16.5-13.8,25.1l-14.6,13.6v.9h21c6.4,0,10.4,3.5,10.4,9.1s-3.9,8.9-10.4,8.9h-40.7c-6.2,0-10.4-3.8-10.4-9.3s2.3-7.7,9.2-14.2Z"/>
      <path class="st1" d="M277,31.2c0-7.6,4.5-12.1,12-12.1h37.2c5,0,8.6,3.8,8.6,9s-3.6,8.9-8.6,8.9h-26.3v13.9h25.2c4.6,0,7.7,3.3,7.7,8.2s-3.1,8.1-7.7,8.1h-25.2v13.9h26c5.3,0,8.9,3.6,8.9,9s-3.6,9-9,9h-36.8c-7.5,0-12-4.5-12-12.1V31.3h0Z"/>
      <path class="st1" d="M343.2,81.9l17.8-23.1-18.1-22.6c-2-2.4-3-4.9-3-7.4,0-5.9,4.7-10.3,10.8-10.3s6.4,1.5,11.5,8.4l13.2,18h1l12-18c4.3-6.4,6.9-8.4,11.4-8.4s10.8,4.5,10.8,10.3-1,4.9-3,7.4l-18.3,23,18.8,22.6c1.9,2.3,3,4.9,3,7.4,0,5.8-4.7,10.3-10.8,10.3s-6-1.3-11.5-8.4l-13.1-17h-1l-12.1,17c-4.9,6.7-7.1,8.4-11.5,8.4s-10.7-4.5-10.7-10.3,1.1-4.9,3-7.4h-.2Z"/>
    </g>
  </g>
  <path class="st1" d="M53.9,19.2H3.3c-1.9,0-3.3,1.5-3.3,3.4v23.1h47.4c1,0,1.9.4,2.6,1.1l11,11.5c.2.3.2.7,0,.9l-11,11.6c-.7.7-1.4,1.3-2.4,1.3H0v23.1c0,1.8,1.5,3.3,3.3,3.3h50.5c1.1,0,2.2-.4,3-1.2l34.1-33.8c2.6-2.6,2.6-6.8,0-9.5q-1.7-1.8,0,0L56.8,20.4c-.8-.8-1.8-1.2-2.9-1.2h0Z"/>
</svg>
